<mxfile host="app.diagrams.net" modified="2022-03-20T17:23:09.461Z" agent="5.0 (Macintosh; Intel Mac OS X 10_15_7) AppleWebKit/605.1.15 (KHTML, like Gecko) Version/15.4 Safari/605.1.15" etag="evXQqCOM9RRv60Gw7cUf" version="17.1.3" type="github">
  <diagram id="OgELY9Nip8va4N-qjmbU" name="Page-1">
    <mxGraphModel dx="842" dy="604" grid="1" gridSize="10" guides="1" tooltips="1" connect="1" arrows="1" fold="1" page="1" pageScale="1" pageWidth="827" pageHeight="1169" math="0" shadow="0">
      <root>
        <mxCell id="0" />
        <mxCell id="1" parent="0" />
        <mxCell id="CjiWC_ZyUrN55SHUi5Jo-1" value="TF-&gt;ONNX-&gt;TORCH" style="swimlane;" vertex="1" parent="1">
          <mxGeometry x="80" y="70" width="370" height="350" as="geometry" />
        </mxCell>
        <mxCell id="CjiWC_ZyUrN55SHUi5Jo-5" value="TensorFlow savedModel" style="rounded=1;whiteSpace=wrap;html=1;" vertex="1" parent="CjiWC_ZyUrN55SHUi5Jo-1">
          <mxGeometry x="45" y="40" width="120" height="60" as="geometry" />
        </mxCell>
        <mxCell id="CjiWC_ZyUrN55SHUi5Jo-7" value="ONNX Model" style="whiteSpace=wrap;html=1;rounded=1;" vertex="1" parent="CjiWC_ZyUrN55SHUi5Jo-1">
          <mxGeometry x="45" y="120" width="120" height="60" as="geometry" />
        </mxCell>
        <mxCell id="CjiWC_ZyUrN55SHUi5Jo-8" value="" style="edgeStyle=orthogonalEdgeStyle;rounded=0;orthogonalLoop=1;jettySize=auto;html=1;" edge="1" parent="CjiWC_ZyUrN55SHUi5Jo-1" source="CjiWC_ZyUrN55SHUi5Jo-5" target="CjiWC_ZyUrN55SHUi5Jo-7">
          <mxGeometry relative="1" as="geometry" />
        </mxCell>
        <mxCell id="CjiWC_ZyUrN55SHUi5Jo-12" style="edgeStyle=orthogonalEdgeStyle;rounded=0;orthogonalLoop=1;jettySize=auto;html=1;entryX=0.5;entryY=0;entryDx=0;entryDy=0;" edge="1" parent="CjiWC_ZyUrN55SHUi5Jo-1" source="CjiWC_ZyUrN55SHUi5Jo-9" target="CjiWC_ZyUrN55SHUi5Jo-13">
          <mxGeometry relative="1" as="geometry">
            <mxPoint x="105" y="290" as="targetPoint" />
          </mxGeometry>
        </mxCell>
        <mxCell id="CjiWC_ZyUrN55SHUi5Jo-16" style="edgeStyle=orthogonalEdgeStyle;rounded=0;orthogonalLoop=1;jettySize=auto;html=1;entryX=0;entryY=0.5;entryDx=0;entryDy=0;" edge="1" parent="CjiWC_ZyUrN55SHUi5Jo-1" source="CjiWC_ZyUrN55SHUi5Jo-9" target="CjiWC_ZyUrN55SHUi5Jo-15">
          <mxGeometry relative="1" as="geometry" />
        </mxCell>
        <mxCell id="CjiWC_ZyUrN55SHUi5Jo-9" value="Torch Model" style="whiteSpace=wrap;html=1;rounded=1;" vertex="1" parent="CjiWC_ZyUrN55SHUi5Jo-1">
          <mxGeometry x="45" y="200" width="120" height="60" as="geometry" />
        </mxCell>
        <mxCell id="CjiWC_ZyUrN55SHUi5Jo-10" value="" style="edgeStyle=orthogonalEdgeStyle;rounded=0;orthogonalLoop=1;jettySize=auto;html=1;" edge="1" parent="CjiWC_ZyUrN55SHUi5Jo-1" source="CjiWC_ZyUrN55SHUi5Jo-7" target="CjiWC_ZyUrN55SHUi5Jo-9">
          <mxGeometry relative="1" as="geometry" />
        </mxCell>
        <mxCell id="CjiWC_ZyUrN55SHUi5Jo-13" value="Model output" style="text;html=1;strokeColor=none;fillColor=none;align=center;verticalAlign=middle;whiteSpace=wrap;rounded=0;" vertex="1" parent="CjiWC_ZyUrN55SHUi5Jo-1">
          <mxGeometry x="75" y="290" width="60" height="30" as="geometry" />
        </mxCell>
        <mxCell id="CjiWC_ZyUrN55SHUi5Jo-15" value="Failed to output intermediate results&amp;nbsp;" style="text;html=1;strokeColor=none;fillColor=none;align=center;verticalAlign=middle;whiteSpace=wrap;rounded=0;" vertex="1" parent="CjiWC_ZyUrN55SHUi5Jo-1">
          <mxGeometry x="210" y="215" width="120" height="30" as="geometry" />
        </mxCell>
        <mxCell id="CjiWC_ZyUrN55SHUi5Jo-17" value="Solution" style="swimlane;" vertex="1" parent="1">
          <mxGeometry x="70" y="520" width="720" height="410" as="geometry" />
        </mxCell>
        <mxCell id="CjiWC_ZyUrN55SHUi5Jo-18" value="TF/Keras model&lt;br&gt;with n layers" style="rounded=1;whiteSpace=wrap;html=1;" vertex="1" parent="CjiWC_ZyUrN55SHUi5Jo-17">
          <mxGeometry x="45" y="45" width="120" height="60" as="geometry" />
        </mxCell>
        <mxCell id="CjiWC_ZyUrN55SHUi5Jo-25" style="edgeStyle=orthogonalEdgeStyle;rounded=0;orthogonalLoop=1;jettySize=auto;html=1;entryX=0.5;entryY=0;entryDx=0;entryDy=0;" edge="1" parent="CjiWC_ZyUrN55SHUi5Jo-17" source="CjiWC_ZyUrN55SHUi5Jo-20" target="CjiWC_ZyUrN55SHUi5Jo-24">
          <mxGeometry relative="1" as="geometry" />
        </mxCell>
        <mxCell id="CjiWC_ZyUrN55SHUi5Jo-20" value="GA" style="rounded=0;whiteSpace=wrap;html=1;" vertex="1" parent="CjiWC_ZyUrN55SHUi5Jo-17">
          <mxGeometry x="45" y="140" width="120" height="60" as="geometry" />
        </mxCell>
        <mxCell id="CjiWC_ZyUrN55SHUi5Jo-19" style="edgeStyle=orthogonalEdgeStyle;rounded=0;orthogonalLoop=1;jettySize=auto;html=1;entryX=0.5;entryY=0;entryDx=0;entryDy=0;" edge="1" parent="CjiWC_ZyUrN55SHUi5Jo-17" source="CjiWC_ZyUrN55SHUi5Jo-18" target="CjiWC_ZyUrN55SHUi5Jo-20">
          <mxGeometry relative="1" as="geometry">
            <mxPoint x="105" y="150" as="targetPoint" />
          </mxGeometry>
        </mxCell>
        <mxCell id="CjiWC_ZyUrN55SHUi5Jo-24" value="Most Fit TF/Keras model&amp;nbsp;(with n layers)" style="rounded=1;whiteSpace=wrap;html=1;" vertex="1" parent="CjiWC_ZyUrN55SHUi5Jo-17">
          <mxGeometry x="45" y="240" width="120" height="60" as="geometry" />
        </mxCell>
        <mxCell id="CjiWC_ZyUrN55SHUi5Jo-27" style="edgeStyle=orthogonalEdgeStyle;rounded=0;orthogonalLoop=1;jettySize=auto;html=1;exitX=0;exitY=0.5;exitDx=0;exitDy=0;exitPerimeter=0;entryX=1;entryY=0.5;entryDx=0;entryDy=0;" edge="1" parent="CjiWC_ZyUrN55SHUi5Jo-17" source="CjiWC_ZyUrN55SHUi5Jo-26" target="CjiWC_ZyUrN55SHUi5Jo-24">
          <mxGeometry relative="1" as="geometry" />
        </mxCell>
        <mxCell id="CjiWC_ZyUrN55SHUi5Jo-31" style="edgeStyle=orthogonalEdgeStyle;rounded=0;orthogonalLoop=1;jettySize=auto;html=1;exitX=1;exitY=0;exitDx=0;exitDy=0;exitPerimeter=0;entryX=0;entryY=0.5;entryDx=0;entryDy=0;fontSize=9;" edge="1" parent="CjiWC_ZyUrN55SHUi5Jo-17" source="CjiWC_ZyUrN55SHUi5Jo-26" target="CjiWC_ZyUrN55SHUi5Jo-30">
          <mxGeometry relative="1" as="geometry" />
        </mxCell>
        <mxCell id="CjiWC_ZyUrN55SHUi5Jo-35" style="edgeStyle=orthogonalEdgeStyle;rounded=0;orthogonalLoop=1;jettySize=auto;html=1;exitX=1;exitY=1;exitDx=0;exitDy=0;exitPerimeter=0;entryX=0;entryY=0.5;entryDx=0;entryDy=0;fontSize=9;" edge="1" parent="CjiWC_ZyUrN55SHUi5Jo-17" source="CjiWC_ZyUrN55SHUi5Jo-26" target="CjiWC_ZyUrN55SHUi5Jo-34">
          <mxGeometry relative="1" as="geometry" />
        </mxCell>
        <mxCell id="CjiWC_ZyUrN55SHUi5Jo-26" value="" style="strokeWidth=2;html=1;shape=mxgraph.flowchart.annotation_2;align=left;labelPosition=right;pointerEvents=1;" vertex="1" parent="CjiWC_ZyUrN55SHUi5Jo-17">
          <mxGeometry x="170" y="220" width="60" height="100" as="geometry" />
        </mxCell>
        <mxCell id="CjiWC_ZyUrN55SHUi5Jo-42" value="" style="edgeStyle=orthogonalEdgeStyle;rounded=0;orthogonalLoop=1;jettySize=auto;html=1;fontSize=9;" edge="1" parent="CjiWC_ZyUrN55SHUi5Jo-17" source="CjiWC_ZyUrN55SHUi5Jo-30" target="CjiWC_ZyUrN55SHUi5Jo-41">
          <mxGeometry relative="1" as="geometry" />
        </mxCell>
        <mxCell id="CjiWC_ZyUrN55SHUi5Jo-30" value="&lt;font style=&quot;font-size: 9px&quot;&gt;TF/Keras Model 1&lt;br&gt;(with first 1 layer)&lt;/font&gt;" style="rounded=1;whiteSpace=wrap;html=1;" vertex="1" parent="CjiWC_ZyUrN55SHUi5Jo-17">
          <mxGeometry x="270" y="170" width="96" height="40" as="geometry" />
        </mxCell>
        <mxCell id="CjiWC_ZyUrN55SHUi5Jo-45" style="edgeStyle=orthogonalEdgeStyle;rounded=0;orthogonalLoop=1;jettySize=auto;html=1;entryX=0;entryY=0.5;entryDx=0;entryDy=0;fontSize=9;" edge="1" parent="CjiWC_ZyUrN55SHUi5Jo-17" source="CjiWC_ZyUrN55SHUi5Jo-33" target="CjiWC_ZyUrN55SHUi5Jo-43">
          <mxGeometry relative="1" as="geometry" />
        </mxCell>
        <mxCell id="CjiWC_ZyUrN55SHUi5Jo-33" value="&lt;font style=&quot;font-size: 9px&quot;&gt;TF/Keras&amp;nbsp;Model i&lt;br&gt;(with first i layers)&lt;/font&gt;" style="rounded=1;whiteSpace=wrap;html=1;" vertex="1" parent="CjiWC_ZyUrN55SHUi5Jo-17">
          <mxGeometry x="270" y="250" width="96" height="40" as="geometry" />
        </mxCell>
        <mxCell id="CjiWC_ZyUrN55SHUi5Jo-46" style="edgeStyle=orthogonalEdgeStyle;rounded=0;orthogonalLoop=1;jettySize=auto;html=1;entryX=0;entryY=0.5;entryDx=0;entryDy=0;fontSize=9;" edge="1" parent="CjiWC_ZyUrN55SHUi5Jo-17" source="CjiWC_ZyUrN55SHUi5Jo-34" target="CjiWC_ZyUrN55SHUi5Jo-44">
          <mxGeometry relative="1" as="geometry" />
        </mxCell>
        <mxCell id="CjiWC_ZyUrN55SHUi5Jo-34" value="&lt;font style=&quot;font-size: 9px&quot;&gt;TF/Keras&amp;nbsp;Model n&lt;br&gt;(with first n layers)&lt;/font&gt;" style="rounded=1;whiteSpace=wrap;html=1;" vertex="1" parent="CjiWC_ZyUrN55SHUi5Jo-17">
          <mxGeometry x="270" y="330" width="96" height="40" as="geometry" />
        </mxCell>
        <mxCell id="CjiWC_ZyUrN55SHUi5Jo-28" style="edgeStyle=orthogonalEdgeStyle;rounded=0;orthogonalLoop=1;jettySize=auto;html=1;entryX=0;entryY=0.5;entryDx=0;entryDy=0;" edge="1" parent="CjiWC_ZyUrN55SHUi5Jo-17" source="CjiWC_ZyUrN55SHUi5Jo-26" target="CjiWC_ZyUrN55SHUi5Jo-33">
          <mxGeometry relative="1" as="geometry">
            <mxPoint x="250" y="270" as="targetPoint" />
          </mxGeometry>
        </mxCell>
        <mxCell id="CjiWC_ZyUrN55SHUi5Jo-36" value="" style="endArrow=none;dashed=1;html=1;dashPattern=1 3;strokeWidth=2;rounded=0;fontSize=9;entryX=0.5;entryY=1;entryDx=0;entryDy=0;exitX=0.5;exitY=0;exitDx=0;exitDy=0;" edge="1" parent="CjiWC_ZyUrN55SHUi5Jo-17" source="CjiWC_ZyUrN55SHUi5Jo-33" target="CjiWC_ZyUrN55SHUi5Jo-30">
          <mxGeometry width="50" height="50" relative="1" as="geometry">
            <mxPoint x="300" y="240" as="sourcePoint" />
            <mxPoint x="343" y="230" as="targetPoint" />
          </mxGeometry>
        </mxCell>
        <mxCell id="CjiWC_ZyUrN55SHUi5Jo-38" value="" style="endArrow=none;dashed=1;html=1;dashPattern=1 3;strokeWidth=2;rounded=0;fontSize=9;entryX=0.5;entryY=1;entryDx=0;entryDy=0;exitX=0.5;exitY=0;exitDx=0;exitDy=0;" edge="1" parent="CjiWC_ZyUrN55SHUi5Jo-17" source="CjiWC_ZyUrN55SHUi5Jo-34" target="CjiWC_ZyUrN55SHUi5Jo-33">
          <mxGeometry width="50" height="50" relative="1" as="geometry">
            <mxPoint x="360" y="310" as="sourcePoint" />
            <mxPoint x="317.57999999999987" y="300" as="targetPoint" />
          </mxGeometry>
        </mxCell>
        <mxCell id="CjiWC_ZyUrN55SHUi5Jo-39" value="Duplicate for n models" style="text;html=1;strokeColor=none;fillColor=none;align=center;verticalAlign=middle;whiteSpace=wrap;rounded=0;fontSize=9;" vertex="1" parent="CjiWC_ZyUrN55SHUi5Jo-17">
          <mxGeometry x="200" y="220" width="60" height="30" as="geometry" />
        </mxCell>
        <mxCell id="CjiWC_ZyUrN55SHUi5Jo-41" value="&lt;font style=&quot;font-size: 9px&quot;&gt;TF-&amp;gt;ONNX-&amp;gt;TORCH&lt;/font&gt;" style="whiteSpace=wrap;html=1;" vertex="1" parent="CjiWC_ZyUrN55SHUi5Jo-17">
          <mxGeometry x="400" y="170" width="100" height="40" as="geometry" />
        </mxCell>
        <mxCell id="CjiWC_ZyUrN55SHUi5Jo-43" value="&lt;font style=&quot;font-size: 9px&quot;&gt;TF-&amp;gt;ONNX-&amp;gt;TORCH&lt;/font&gt;" style="whiteSpace=wrap;html=1;" vertex="1" parent="CjiWC_ZyUrN55SHUi5Jo-17">
          <mxGeometry x="400" y="250" width="100" height="40" as="geometry" />
        </mxCell>
        <mxCell id="CjiWC_ZyUrN55SHUi5Jo-44" value="&lt;font style=&quot;font-size: 9px&quot;&gt;TF-&amp;gt;ONNX-&amp;gt;TORCH&lt;/font&gt;" style="whiteSpace=wrap;html=1;" vertex="1" parent="CjiWC_ZyUrN55SHUi5Jo-17">
          <mxGeometry x="400" y="330" width="100" height="40" as="geometry" />
        </mxCell>
      </root>
    </mxGraphModel>
  </diagram>
</mxfile>
